<!DOCTYPE svg PUBLIC "-//W3C//DTD SVG 20010904//EN" "http://www.w3.org/TR/2001/REC-SVG-20010904/DTD/svg10.dtd">
<svg version="1.0" xmlns="http://www.w3.org/2000/svg" width="523px" height="599px" viewBox="0 0 5230 5990" preserveAspectRatio="xMidYMid meet">
<g id="layer101" fill="#ffffff" stroke="none">
 <path d="M0 2987 l0 -2987 1573 2 1572 3 119 33 c756 208 1307 816 1431 1582 84 520 -69 1078 -414 1505 -158 196 -429 415 -633 511 -21 10 -38 25 -38 34 0 9 102 160 226 336 266 374 235 330 499 704 115 162 213 300 217 305 5 6 77 107 160 225 243 345 431 611 472 668 l38 52 -289 -1 -288 0 -120 -172 c-66 -94 -141 -200 -167 -236 -26 -37 -99 -138 -161 -226 -62 -88 -200 -283 -307 -433 -107 -150 -206 -290 -219 -310 -42 -63 -374 -527 -381 -532 -4 -3 -12 -15 -19 -28 -10 -18 -126 -184 -153 -217 -4 -5 -24 -35 -44 -65 -20 -30 -56 -82 -81 -115 -24 -33 -127 -178 -229 -322 -102 -145 -191 -263 -198 -263 -13 0 -32 32 -331 550 -65 113 -123 212 -128 221 -8 13 51 103 291 441 166 234 302 430 304 435 4 14 -273 403 -283 398 -8 -5 -128 -172 -224 -310 -27 -40 -69 -99 -93 -131 -23 -32 -84 -118 -135 -189 -51 -72 -100 -141 -110 -155 -10 -14 -99 -140 -198 -280 -99 -140 -185 -256 -193 -258 -7 -2 -41 41 -76 95 -67 103 -237 361 -425 648 -61 94 -300 458 -530 810 -230 352 -422 644 -426 650 -5 5 -9 -1302 -9 -2978z m569 1268 c32 -49 123 -189 202 -309 79 -121 194 -295 254 -388 61 -92 179 -273 264 -403 84 -129 156 -235 160 -235 5 0 213 290 310 432 14 21 32 37 40 35 7 -1 54 -72 103 -157 50 -85 132 -227 183 -315 227 -393 419 -721 430 -738 11 -16 27 3 146 169 74 103 139 194 144 202 38 57 379 538 385 542 4 3 9 10 11 15 2 6 27 43 54 83 37 52 56 71 73 72 57 0 291 -140 421 -253 169 -148 341 -395 397 -571 9 -28 22 -65 29 -81 8 -17 24 -77 36 -135 20 -89 23 -135 23 -305 1 -212 -7 -277 -51 -420 -52 -170 -139 -343 -238 -470 -57 -74 -240 -250 -320 -308 -189 -136 -429 -227 -670 -256 -59 -7 -498 -11 -1292 -11 l-1203 0 0 1978 0 1977 25 -30 c13 -16 51 -70 84 -120z"/>
 </g>

</svg>
